<svg height='100px' width='100px'  fill="#000000" xmlns="http://www.w3.org/2000/svg" xmlns:xlink="http://www.w3.org/1999/xlink" version="1.1" x="0px" y="0px" viewBox="0 0 65 65" enable-background="new 0 0 65 65" xml:space="preserve"><path d="M34.165,19.411c0-7.066-5.777-12.814-12.878-12.814S8.409,12.345,8.409,19.411c0,0.414,0.336,0.75,0.75,0.75h24.256  C33.829,20.161,34.165,19.825,34.165,19.411z M21.287,8.096c6.02,0,10.949,4.676,11.34,10.564H25.98  c-0.32-2.63-2.254-5.371-4.693-5.371c-0.161,0-0.32,0.013-0.477,0.036l-0.946-1.699c-0.202-0.363-0.66-0.494-1.02-0.291  c-0.362,0.202-0.492,0.658-0.291,1.02l0.84,1.509c-1.498,0.941-2.568,2.896-2.8,4.795H9.947  C10.338,12.772,15.268,8.096,21.287,8.096z M21.287,14.79c1.511,0,2.875,2.002,3.18,3.871h-6.359  C18.412,16.792,19.776,14.79,21.287,14.79z"></path><path d="M22.177,25.496H9.223c-0.414,0-0.75,0.336-0.75,0.75v17.215c0,0.414,0.336,0.75,0.75,0.75h12.954  c0.414,0,0.75-0.336,0.75-0.75V26.246C22.927,25.832,22.591,25.496,22.177,25.496z M21.427,35.411l-5.92-8.415h5.92V35.411z   M9.973,33.804l6.562,8.907H9.973V33.804z M18.398,42.711L9.973,31.274v-4.278h3.701l7.753,11.022v4.692H18.398z"></path><path d="M58.813,49.006V37.217c0-4.258-8.604-6.926-18.426-7.785V4.771c0-1.906-1.55-3.456-3.454-3.456H5.644  c-1.906,0-3.456,1.55-3.456,3.456v41.266c0,1.905,1.55,3.455,3.456,3.455h31.289c1.904,0,3.454-1.55,3.454-3.455v-3.855  c4.241,1.152,7.169,3.294,7.169,5.689v8.469c-2.294,0.493-4.001,3.209-4.001,6.596c0,0.414,0.336,0.75,0.75,0.75  s0.75-0.336,0.75-0.75c0-2.81,1.488-5.184,3.251-5.184c1.762,0,3.25,2.374,3.25,5.184c0,0.414,0.336,0.75,0.75,0.75  s0.75-0.336,0.75-0.75c0-3.387-1.706-6.103-4-6.596v-8.469c0-3.227-3.494-5.948-8.669-7.254v-9.686  c10.244,0.908,16.926,3.716,16.926,6.286v11.789c-2.294,0.493-4,3.209-4,6.596c0,0.414,0.336,0.75,0.75,0.75s0.75-0.336,0.75-0.75  c0-2.81,1.488-5.184,3.25-5.184s3.25,2.374,3.25,5.184c0,0.414,0.336,0.75,0.75,0.75s0.75-0.336,0.75-0.75  C62.813,52.215,61.106,49.499,58.813,49.006z M38.887,40.289c-1.506-0.283-3.124-0.451-4.823-0.487  c-0.195-2.042-1.9-3.651-3.993-3.651c-2.222,0-4.03,1.809-4.03,4.031c0,2.222,1.808,4.029,4.03,4.029  c1.833,0,3.366-1.236,3.854-2.913c1.743,0.032,3.42,0.212,4.962,0.524v4.215c0,1.078-0.877,1.955-1.954,1.955H5.644  c-1.079,0-1.956-0.877-1.956-1.955V4.771c0-1.079,0.877-1.956,1.956-1.956h31.289c1.077,0,1.954,0.877,1.954,1.956v24.545  c-1.597-0.108-3.215-0.169-4.825-0.183c-0.2-2.036-1.902-3.638-3.991-3.638c-2.222,0-4.03,1.808-4.03,4.03  c0,2.223,1.808,4.031,4.03,4.031c1.836,0,3.373-1.241,3.857-2.924c1.723,0.011,3.379,0.073,4.959,0.181V40.289z M32.602,40.182  c0,1.395-1.136,2.529-2.532,2.529c-1.395,0-2.53-1.135-2.53-2.529c0-1.396,1.135-2.531,2.53-2.531  C31.466,37.65,32.602,38.786,32.602,40.182z M32.602,29.526c0,1.396-1.136,2.531-2.532,2.531c-1.395,0-2.53-1.136-2.53-2.531  c0-1.395,1.135-2.53,2.53-2.53C31.466,26.996,32.602,28.131,32.602,29.526z"></path></svg>